<svg xmlns:dc="http://purl.org/dc/elements/1.1/" xmlns:cc="http://creativecommons.org/ns#" xmlns:rdf="http://www.w3.org/1999/02/22-rdf-syntax-ns#" xmlns:svg="http://www.w3.org/2000/svg" xmlns="http://www.w3.org/2000/svg" xmlns:sodipodi="http://sodipodi.sourceforge.net/DTD/sodipodi-0.dtd" xmlns:inkscape="http://www.inkscape.org/namespaces/inkscape" viewBox="0 -256 1792 1792" id="svg2989" version="1.1" inkscape:version="0.48.3.1 r9886" width="100%" height="100%" sodipodi:docname="resize_full_font_awesome.svg"> <g transform="matrix(1,0,0,-1,144.27119,1293.0169)" > <path d="m 755,480 q 0,-13 -10,-23 L 413,125 557,-19 q 19,-19 19,-45 0,-26 -19,-45 -19,-19 -45,-19 H 64 q -26,0 -45,19 -19,19 -19,45 v 448 q 0,26 19,45 19,19 45,19 26,0 45,-19 L 253,285 585,617 q 10,10 23,10 13,0 23,-10 L 745,503 q 10,-10 10,-23 z m 781,864 V 896 q 0,-26 -19,-45 -19,-19 -45,-19 -26,0 -45,19 L 1283,995 951,663 q -10,-10 -23,-10 -13,0 -23,10 L 791,777 q -10,10 -10,23 0,13 10,23 l 332,332 -144,144 q -19,19 -19,45 0,26 19,45 19,19 45,19 h 448 q 26,0 45,-19 19,-19 19,-45 z"/> </g></svg>